<?xml version="1.0" encoding="utf-8"?>
<svg version="1.1" id="Layer_1"
xmlns="http://www.w3.org/2000/svg"
xmlns:xlink="http://www.w3.org/1999/xlink"
width="550px" height="400px"
xml:space="preserve">
<g id="PathID_1" transform="matrix(-0.189512, -2.60968, 2.60968, -0.189512, 91.85, 401.3)" opacity="1">
<path style="fill:#41B882;fill-opacity:1" d="M101.85 43.55L72.9 58.25L43.6 28.9L101.85 0L101.85 43.55M0 28.9L58.7 87.15L145.4 43.15L145.4 101.8L58.7 144.95L0 87.15L0 28.9" />
</g>
<g id="PathID_2" transform="matrix(-0.189512, -2.60968, 2.60968, -0.189512, 91.85, 401.3)" opacity="1">
</g>
<g id="PathID_3" transform="matrix(-0.112319, -1.67208, 1.67208, -0.112319, 116.85, 321.75)" opacity="1">
<path style="fill:#35495E;fill-opacity:1" d="M101.85 43.55L72.9 58.25L43.6 28.9L101.85 0L101.85 43.55M0 28.9L58.7 87.15L145.4 43.15L145.4 101.8L58.7 144.95L0 87.15L0 28.9" />
</g>
<g id="PathID_4" transform="matrix(-0.112319, -1.67208, 1.67208, -0.112319, 116.85, 321.75)" opacity="1">
</g>
</svg>
